<svg width="64" height="58" viewBox="0 0 64 58" fill="none" xmlns="http://www.w3.org/2000/svg">
<g id="User">
<path id="Vector" d="M57.7324 49.1646C57.5568 49.4312 57.3043 49.6526 57.0002 49.8065C56.696 49.9604 56.3511 50.0414 55.9999 50.0413H7.9999C7.649 50.041 7.30437 49.9597 7.00062 49.8057C6.69687 49.6517 6.44468 49.4303 6.26939 49.1638C6.0941 48.8973 6.00186 48.5951 6.00195 48.2874C6.00204 47.9798 6.09445 47.6776 6.2699 47.4111C10.0774 41.6402 15.9449 37.5021 22.7924 35.5405C19.4053 33.7727 16.7738 31.079 15.3019 27.8732C13.83 24.6673 13.5991 21.1264 14.6448 17.7944C15.6904 14.4624 17.9547 11.5234 21.09 9.42874C24.2252 7.33412 28.0581 6.19971 31.9999 6.19971C35.9417 6.19971 39.7746 7.33412 42.9098 9.42874C46.0451 11.5234 48.3094 14.4624 49.3551 17.7944C50.4007 21.1264 50.1698 24.6673 48.6979 27.8732C47.226 31.079 44.5945 33.7727 41.2074 35.5405C48.0549 37.5021 53.9224 41.6402 57.7299 47.4111C57.9058 47.6775 57.9987 47.9798 57.9991 48.2876C57.9995 48.5954 57.9076 48.8978 57.7324 49.1646Z" fill="#F18701"/>
</g>
</svg>
