<svg width="22" height="22" viewBox="0 0 22 22" fill="none" xmlns="http://www.w3.org/2000/svg">
<g id="CaretDown">
<g id="Vector">
<mask id="path-1-inside-1_1256_17637" fill="white">
<path d="M13.3858 18.2392L6.51079 11.3642C6.41423 11.2675 6.35999 11.1365 6.35999 10.9998C6.35999 10.8632 6.41423 10.7321 6.51079 10.6355L13.3858 3.76046C13.4835 3.66938 13.6128 3.61979 13.7464 3.62215C13.88 3.62451 14.0074 3.67862 14.1019 3.77309C14.1964 3.86756 14.2505 3.99502 14.2528 4.1286C14.2552 4.26218 14.2056 4.39146 14.1145 4.48921L7.60478 10.9998L14.1145 17.5105C14.2056 17.6082 14.2552 17.7375 14.2528 17.8711C14.2505 18.0047 14.1964 18.1321 14.1019 18.2266C14.0074 18.321 13.88 18.3752 13.7464 18.3775C13.6128 18.3799 13.4835 18.3303 13.3858 18.2392Z"/>
</mask>
<path d="M13.3858 18.2392L6.51079 11.3642C6.41423 11.2675 6.35999 11.1365 6.35999 10.9998C6.35999 10.8632 6.41423 10.7321 6.51079 10.6355L13.3858 3.76046C13.4835 3.66938 13.6128 3.61979 13.7464 3.62215C13.88 3.62451 14.0074 3.67862 14.1019 3.77309C14.1964 3.86756 14.2505 3.99502 14.2528 4.1286C14.2552 4.26218 14.2056 4.39146 14.1145 4.48921L7.60478 10.9998L14.1145 17.5105C14.2056 17.6082 14.2552 17.7375 14.2528 17.8711C14.2505 18.0047 14.1964 18.1321 14.1019 18.2266C14.0074 18.321 13.88 18.3752 13.7464 18.3775C13.6128 18.3799 13.4835 18.3303 13.3858 18.2392Z" fill="#F18701"/>
<path d="M13.3858 18.2392L11.9716 19.6534L11.9965 19.6784L12.0223 19.7024L13.3858 18.2392ZM6.51079 11.3642L5.0957 12.7775L5.09658 12.7784L6.51079 11.3642ZM6.51079 10.6355L5.09658 9.22124L5.0957 9.22213L6.51079 10.6355ZM13.3858 3.76046L12.0223 2.29724L11.9965 2.32129L11.9716 2.34624L13.3858 3.76046ZM14.1145 4.48921L15.5288 5.90333L15.5538 5.87842L15.5778 5.85265L14.1145 4.48921ZM7.60478 10.9998L6.19047 9.58571L4.77654 10.9998L6.19047 12.414L7.60478 10.9998ZM14.1145 17.5105L15.5778 16.147L15.5538 16.1212L15.5288 16.0963L14.1145 17.5105ZM14.8 16.825L7.925 9.95L5.09658 12.7784L11.9716 19.6534L14.8 16.825ZM7.92588 9.95088C8.20386 10.2292 8.35999 10.6065 8.35999 10.9998H4.35999C4.35999 11.6665 4.6246 12.3059 5.0957 12.7775L7.92588 9.95088ZM8.35999 10.9998C8.35999 11.3932 8.20386 11.7705 7.92588 12.0488L5.0957 9.22213C4.6246 9.69381 4.35999 10.3332 4.35999 10.9998H8.35999ZM7.925 12.0497L14.8 5.17467L11.9716 2.34624L5.09658 9.22124L7.925 12.0497ZM14.7492 5.22368C14.4678 5.48588 14.0957 5.62862 13.7111 5.62184L13.7817 1.62246C13.13 1.61096 12.4992 1.85288 12.0223 2.29724L14.7492 5.22368ZM13.7111 5.62184C13.3266 5.61505 12.9597 5.45927 12.6877 5.18731L15.5161 2.35888C15.0552 1.89797 14.4334 1.63396 13.7817 1.62246L13.7111 5.62184ZM12.6877 5.18731C12.4157 4.91535 12.2599 4.54844 12.2532 4.16388L16.2525 4.09332C16.241 3.44159 15.977 2.81978 15.5161 2.35888L12.6877 5.18731ZM12.2532 4.16388C12.2464 3.77932 12.3891 3.40715 12.6513 3.12576L15.5778 5.85265C16.0221 5.37578 16.264 4.74504 16.2525 4.09332L12.2532 4.16388ZM12.7002 3.07509L6.19047 9.58571L9.01908 12.414L15.5288 5.90333L12.7002 3.07509ZM6.19047 12.414L12.7002 18.9246L15.5288 16.0963L9.01908 9.58571L6.19047 12.414ZM12.6513 18.8739C12.3891 18.5925 12.2464 18.2203 12.2532 17.8358L16.2525 17.9064C16.264 17.2546 16.0221 16.6239 15.5778 16.147L12.6513 18.8739ZM12.2532 17.8358C12.2599 17.4512 12.4157 17.0843 12.6877 16.8124L15.5161 19.6408C15.977 19.1799 16.241 18.5581 16.2525 17.9064L12.2532 17.8358ZM12.6877 16.8124C12.9597 16.5404 13.3266 16.3846 13.7111 16.3778L13.7817 20.3772C14.4334 20.3657 15.0552 20.1017 15.5161 19.6408L12.6877 16.8124ZM13.7111 16.3778C14.0957 16.371 14.4678 16.5138 14.7492 16.776L12.0223 19.7024C12.4992 20.1468 13.13 20.3887 13.7817 20.3772L13.7111 16.3778Z" fill="#F18701" mask="url(#path-1-inside-1_1256_17637)"/>
</g>
</g>
</svg>
