<svg width="20" height="20" viewBox="0 0 20 20" fill="none" xmlns="http://www.w3.org/2000/svg">
<g id="UsersFour">
<path id="Vector" d="M2.21875 9.74981C2.31821 9.8244 2.44322 9.85643 2.56629 9.83884C2.68936 9.82126 2.80041 9.75551 2.875 9.65606C3.26797 9.1321 3.77752 8.70684 4.36332 8.41394C4.94912 8.12104 5.59506 7.96856 6.25 7.96856C6.90494 7.96856 7.55089 8.12104 8.13668 8.41394C8.72248 8.70684 9.23204 9.1321 9.625 9.65606C9.69971 9.75539 9.81081 9.82099 9.93388 9.83842C10.0569 9.85586 10.1819 9.8237 10.2813 9.74902C10.3168 9.7229 10.3481 9.69156 10.3742 9.65606C10.7672 9.1321 11.2767 8.70684 11.8625 8.41394C12.4483 8.12104 13.0943 7.96856 13.7492 7.96856C14.4042 7.96856 15.0501 8.12104 15.6359 8.41394C16.2217 8.70684 16.7313 9.1321 17.1242 9.65606C17.1989 9.75551 17.3101 9.82122 17.4332 9.83873C17.5563 9.85624 17.6814 9.82411 17.7809 9.74941C17.8803 9.67472 17.946 9.56357 17.9635 9.44043C17.981 9.31729 17.9489 9.19223 17.8742 9.09277C17.2841 8.30237 16.4788 7.69863 15.5547 7.35371C16.0472 6.97635 16.4092 6.45415 16.5896 5.86047C16.7701 5.2668 16.76 4.63151 16.5608 4.04387C16.3616 3.45623 15.9832 2.94578 15.4789 2.58426C14.9746 2.22274 14.3697 2.02832 13.7492 2.02832C13.1287 2.02832 12.5238 2.22274 12.0195 2.58426C11.5152 2.94578 11.1369 3.45623 10.9377 4.04387C10.7384 4.63151 10.7283 5.2668 10.9088 5.86047C11.0893 6.45415 11.4512 6.97635 11.9438 7.35371C11.2045 7.62917 10.5391 8.07229 10 8.64824C9.46064 8.07219 8.79502 7.62907 8.05547 7.35371C8.54803 6.97635 8.90997 6.45415 9.09043 5.86047C9.27088 5.2668 9.26079 4.63151 9.06156 4.04387C8.86234 3.45623 8.48399 2.94578 7.97969 2.58426C7.47539 2.22274 6.8705 2.02832 6.25 2.02832C5.62951 2.02832 5.02461 2.22274 4.52031 2.58426C4.01601 2.94578 3.63767 3.45623 3.43844 4.04387C3.23921 4.63151 3.22912 5.2668 3.40958 5.86047C3.59004 6.45415 3.95198 6.97635 4.44453 7.35371C3.52019 7.69865 2.71487 8.30271 2.125 9.09356C2.05041 9.19301 2.01838 9.31803 2.03596 9.4411C2.05354 9.56417 2.1193 9.67521 2.21875 9.74981ZM13.75 2.96856C14.1517 2.96856 14.5445 3.08769 14.8785 3.31088C15.2125 3.53408 15.4729 3.85132 15.6266 4.22248C15.7804 4.59364 15.8206 5.00206 15.7422 5.39608C15.6638 5.79011 15.4704 6.15204 15.1863 6.43612C14.9022 6.72019 14.5403 6.91365 14.1463 6.99203C13.7523 7.0704 13.3438 7.03018 12.9727 6.87644C12.6015 6.7227 12.2843 6.46234 12.0611 6.12831C11.8379 5.79427 11.7188 5.40155 11.7188 4.99981C11.7188 4.46108 11.9328 3.94443 12.3137 3.56349C12.6946 3.18256 13.2113 2.96856 13.75 2.96856ZM6.25 2.96856C6.65175 2.96856 7.04447 3.08769 7.3785 3.31088C7.71254 3.53408 7.97289 3.85132 8.12663 4.22248C8.28037 4.59364 8.3206 5.00206 8.24222 5.39608C8.16385 5.79011 7.97039 6.15204 7.68631 6.43612C7.40224 6.72019 7.0403 6.91365 6.64628 6.99203C6.25225 7.0704 5.84384 7.03018 5.47268 6.87644C5.10151 6.7227 4.78428 6.46234 4.56108 6.12831C4.33788 5.79427 4.21875 5.40155 4.21875 4.99981C4.21875 4.46108 4.43276 3.94443 4.81369 3.56349C5.19462 3.18256 5.71128 2.96856 6.25 2.96856ZM15.5555 15.4787C16.048 15.1014 16.41 14.5791 16.5904 13.9855C16.7709 13.3918 16.7608 12.7565 16.5616 12.1689C16.3623 11.5812 15.984 11.0708 15.4797 10.7093C14.9754 10.3477 14.3705 10.1533 13.75 10.1533C13.1295 10.1533 12.5246 10.3477 12.0203 10.7093C11.516 11.0708 11.1377 11.5812 10.9384 12.1689C10.7392 12.7565 10.7291 13.3918 10.9096 13.9855C11.09 14.5791 11.452 15.1014 11.9445 15.4787C11.205 15.7541 10.5394 16.1972 10 16.7732C9.46064 16.1972 8.79502 15.7541 8.05547 15.4787C8.54803 15.1014 8.90997 14.5791 9.09043 13.9855C9.27088 13.3918 9.26079 12.7565 9.06156 12.1689C8.86234 11.5812 8.48399 11.0708 7.97969 10.7093C7.47539 10.3477 6.8705 10.1533 6.25 10.1533C5.62951 10.1533 5.02461 10.3477 4.52031 10.7093C4.01601 11.0708 3.63767 11.5812 3.43844 12.1689C3.23921 12.7565 3.22912 13.3918 3.40958 13.9855C3.59004 14.5791 3.95198 15.1014 4.44453 15.4787C3.52019 15.8236 2.71487 16.4277 2.125 17.2186C2.08807 17.2678 2.06119 17.3238 2.04592 17.3835C2.03064 17.4431 2.02726 17.5052 2.03596 17.5661C2.04467 17.627 2.06529 17.6857 2.09665 17.7386C2.12802 17.7916 2.16951 17.8379 2.21875 17.8748C2.268 17.9117 2.32404 17.9386 2.38367 17.9539C2.4433 17.9692 2.50535 17.9725 2.56629 17.9638C2.62723 17.9551 2.68586 17.9345 2.73883 17.9032C2.7918 17.8718 2.83807 17.8303 2.875 17.7811C3.26797 17.2571 3.77752 16.8318 4.36332 16.5389C4.94912 16.246 5.59506 16.0936 6.25 16.0936C6.90494 16.0936 7.55089 16.246 8.13668 16.5389C8.72248 16.8318 9.23204 17.2571 9.625 17.7811C9.69971 17.8804 9.81081 17.946 9.93388 17.9634C10.0569 17.9809 10.1819 17.9487 10.2813 17.874C10.3168 17.8479 10.3481 17.8166 10.3742 17.7811C10.7672 17.2571 11.2767 16.8318 11.8625 16.5389C12.4483 16.246 13.0943 16.0936 13.7492 16.0936C14.4042 16.0936 15.0501 16.246 15.6359 16.5389C16.2217 16.8318 16.7313 17.2571 17.1242 17.7811C17.1989 17.8805 17.3101 17.9462 17.4332 17.9637C17.5563 17.9812 17.6814 17.9491 17.7809 17.8744C17.8803 17.7997 17.946 17.6886 17.9635 17.5654C17.981 17.4423 17.9489 17.3172 17.8742 17.2178C17.2843 16.4275 16.4793 15.8238 15.5555 15.4787ZM6.25 11.0936C6.65175 11.0936 7.04447 11.2127 7.3785 11.4359C7.71254 11.6591 7.97289 11.9763 8.12663 12.3475C8.28037 12.7186 8.3206 13.1271 8.24222 13.5211C8.16385 13.9151 7.97039 14.277 7.68631 14.5611C7.40224 14.8452 7.0403 15.0386 6.64628 15.117C6.25225 15.1954 5.84384 15.1552 5.47268 15.0014C5.10151 14.8477 4.78428 14.5873 4.56108 14.2533C4.33788 13.9193 4.21875 13.5265 4.21875 13.1248C4.21875 12.5861 4.43276 12.0694 4.81369 11.6885C5.19462 11.3076 5.71128 11.0936 6.25 11.0936ZM13.75 11.0936C14.1517 11.0936 14.5445 11.2127 14.8785 11.4359C15.2125 11.6591 15.4729 11.9763 15.6266 12.3475C15.7804 12.7186 15.8206 13.1271 15.7422 13.5211C15.6638 13.9151 15.4704 14.277 15.1863 14.5611C14.9022 14.8452 14.5403 15.0386 14.1463 15.117C13.7523 15.1954 13.3438 15.1552 12.9727 15.0014C12.6015 14.8477 12.2843 14.5873 12.0611 14.2533C11.8379 13.9193 11.7188 13.5265 11.7188 13.1248C11.7188 12.5861 11.9328 12.0694 12.3137 11.6885C12.6946 11.3076 13.2113 11.0936 13.75 11.0936Z" fill="#909090"/>
</g>
</svg>
